<svg version="1.1" id="Layer_1" xmlns="http://www.w3.org/2000/svg" xmlns:xlink="http://www.w3.org/1999/xlink" x="0px" y="0px"
	 width="100%" viewBox="0 0 895 880" enable-background="new 0 0 895 880" xml:space="preserve">
<path fill="#000102" opacity="1.000000" stroke="none" 
	d="
M1.000000,335.000000 
	C1.000000,223.333328 1.000000,112.166664 1.000000,1.000000 
	C299.333344,1.000000 597.666687,1.000000 896.000000,1.000000 
	C896.000000,294.333344 896.000000,587.666687 896.000000,881.000000 
	C597.666687,881.000000 299.333344,881.000000 1.000000,881.000000 
	C1.000000,699.166687 1.000000,517.333313 1.000000,335.000000 
M820.653564,100.852615 
	C820.385559,100.243774 820.180176,99.597359 819.840576,99.031502 
	C799.407471,64.985222 769.152893,48.185287 729.624268,48.160110 
	C586.637390,48.069027 443.650543,48.095676 300.663696,48.061783 
	C279.415710,48.056747 259.314819,52.731159 241.002487,63.594795 
	C211.862183,80.882019 195.029968,106.664932 189.861618,140.057266 
	C188.795166,146.947525 188.328384,153.933487 187.674271,160.883728 
	C187.168686,166.255463 184.884201,170.106140 179.209869,171.081512 
	C174.789597,171.841339 170.344101,172.459976 165.902161,173.087158 
	C148.501160,175.544113 131.506882,179.599106 115.872261,187.813354 
	C82.851952,205.161835 64.822281,233.313354 59.901024,269.631531 
	C57.629581,286.394440 57.492611,303.511597 57.312965,320.477966 
	C57.030754,347.131775 57.549061,373.793793 57.687904,400.452545 
	C57.723076,407.207001 57.220390,407.006531 50.924297,408.226471 
	C45.844486,409.210724 40.680538,411.128998 36.278667,413.818939 
	C32.635868,416.044983 29.848921,419.567627 29.869114,424.832489 
	C30.034655,467.994629 29.943092,511.157776 30.038002,554.320374 
	C30.042776,556.491394 30.686678,558.836548 31.647720,560.799683 
	C35.845352,569.374146 44.087070,571.464905 52.416229,572.558655 
	C56.865608,573.142822 57.947880,574.893311 57.836937,578.943848 
	C57.608871,587.270508 57.730122,595.607117 57.732162,603.939636 
	C57.741131,640.589844 57.341351,677.247498 57.994740,713.886292 
	C58.230602,727.112610 59.597786,740.658569 62.915249,753.417297 
	C69.247208,777.769653 83.482895,797.560608 103.002762,813.421021 
	C115.685936,823.726501 129.640671,832.249817 145.875854,834.815369 
	C162.749191,837.481750 179.919373,839.429565 196.976120,839.560791 
	C251.125214,839.977234 305.284851,839.653015 359.433777,839.033386 
	C373.416809,838.873413 383.895447,831.242615 390.330688,818.685669 
	C396.508057,806.631897 397.378540,793.429443 397.721344,780.272888 
	C398.332550,756.816284 397.098236,733.321533 400.901398,709.967102 
	C405.004456,684.770813 410.720734,660.050476 419.276154,635.966492 
	C429.625183,606.833252 443.510742,579.475769 460.947357,554.042480 
	C491.900360,508.894043 530.099060,471.106750 576.822449,442.193512 
	C607.023376,423.504700 639.327271,409.613831 673.500610,400.234344 
	C703.919617,391.885315 734.764954,386.106934 766.573608,386.546509 
	C780.032532,386.732483 793.453979,385.561188 806.543457,381.484955 
	C819.998413,377.294952 831.052185,364.668274 830.982849,348.318176 
	C830.729248,288.491241 830.998901,228.662186 830.787231,168.834930 
	C830.743347,156.423340 829.644714,144.004105 828.732117,131.610474 
	C827.961731,121.148567 826.983765,110.660164 820.653564,100.852615 
M530.618103,719.246460 
	C535.388062,692.858765 544.036133,667.765930 557.068359,644.372925 
	C580.495972,602.320190 612.830139,568.916138 655.067627,545.367432 
	C680.310425,531.293884 707.155396,521.651245 735.723206,517.613892 
	C751.003235,515.454468 766.558899,515.211365 781.997559,514.219360 
	C796.717163,513.273560 810.243835,509.390198 820.662476,498.263794 
	C828.951660,489.411469 833.721497,478.787720 830.121826,466.822601 
	C824.426941,447.892944 810.239868,437.729980 791.283142,434.728149 
	C782.859375,433.394196 774.056641,433.948425 765.456055,434.327881 
	C735.741760,435.638977 706.498230,440.125854 677.965027,448.652588 
	C642.434387,459.270447 609.681335,475.524048 579.980286,497.787994 
	C537.200073,529.856140 503.667267,569.771912 479.321106,617.330444 
	C466.605011,642.170349 457.822632,668.469177 452.275269,695.791504 
	C446.577820,723.852905 445.291962,752.272095 446.381836,780.826904 
	C446.757019,790.655518 447.631104,800.314026 451.516266,809.630371 
	C460.859619,832.035095 486.854065,840.935364 507.678986,828.418213 
	C523.435120,818.947754 528.721130,804.497620 527.511047,786.784485 
	C525.985840,764.458862 526.222046,742.172424 530.618103,719.246460 
M758.756470,568.419617 
	C747.605469,570.335388 736.212585,571.367798 725.351440,574.341919 
	C698.789246,581.615723 674.355042,593.516663 652.993042,611.154175 
	C614.624329,642.833130 591.330444,683.251892 582.947998,732.317627 
	C579.316284,753.575012 579.902649,774.750366 583.127136,795.986328 
	C586.039001,815.163818 599.282959,829.739319 617.631958,833.424805 
	C638.543213,837.625061 661.019104,821.427002 663.012512,800.259888 
	C663.662903,793.353638 663.273010,786.275452 662.658020,779.337952 
	C660.793823,758.307739 662.256653,737.830383 670.559509,718.088928 
	C680.383240,694.731262 696.149109,676.697815 718.028503,664.045654 
	C736.641968,653.282166 756.881165,648.725647 778.279236,648.816956 
	C791.890198,648.875000 805.041992,646.665710 815.638672,637.462524 
	C833.221924,622.191589 836.624023,602.822571 821.793457,585.453918 
	C812.489868,574.558289 799.549683,569.799011 785.675049,568.397705 
	C777.104431,567.532043 768.366821,568.320190 758.756470,568.419617 
M734.068604,718.588013 
	C719.431458,732.980774 713.535522,749.811401 718.495789,770.302917 
	C723.220703,789.822327 742.640137,806.672485 762.953064,808.516724 
	C789.045532,810.885742 811.795654,794.027100 818.347473,770.757507 
	C825.681213,744.710571 811.864197,719.254211 788.314392,709.488647 
	C768.796753,701.395203 750.859131,705.001648 734.068604,718.588013 
z"/>
<path fill="#097BB0" opacity="1.000000" stroke="none" 
	d="
M820.840332,101.170853 
	C826.983765,110.660164 827.961731,121.148567 828.732117,131.610474 
	C829.644714,144.004105 830.743347,156.423340 830.787231,168.834930 
	C830.998901,228.662186 830.729248,288.491241 830.982849,348.318176 
	C831.052185,364.668274 819.998413,377.294952 806.543457,381.484955 
	C793.453979,385.561188 780.032532,386.732483 766.573608,386.546509 
	C734.764954,386.106934 703.919617,391.885315 673.500610,400.234344 
	C639.327271,409.613831 607.023376,423.504700 576.822449,442.193512 
	C530.099060,471.106750 491.900360,508.894043 460.947357,554.042480 
	C443.510742,579.475769 429.625183,606.833252 419.276154,635.966492 
	C410.720734,660.050476 405.004456,684.770813 400.901398,709.967102 
	C397.098236,733.321533 398.332550,756.816284 397.721344,780.272888 
	C397.378540,793.429443 396.508057,806.631897 390.330688,818.685669 
	C383.895447,831.242615 373.416809,838.873413 359.433777,839.033386 
	C305.284851,839.653015 251.125214,839.977234 196.976120,839.560791 
	C179.919373,839.429565 162.749191,837.481750 145.875854,834.815369 
	C129.640671,832.249817 115.685936,823.726501 103.002762,813.421021 
	C83.482895,797.560608 69.247208,777.769653 62.915249,753.417297 
	C59.597786,740.658569 58.230602,727.112610 57.994740,713.886292 
	C57.341351,677.247498 57.741131,640.589844 57.732162,603.939636 
	C57.730122,595.607117 57.608871,587.270508 57.836937,578.943848 
	C57.947880,574.893311 56.865608,573.142822 52.416229,572.558655 
	C44.087070,571.464905 35.845352,569.374146 31.647720,560.799683 
	C30.686678,558.836548 30.042776,556.491394 30.038002,554.320374 
	C29.943092,511.157776 30.034655,467.994629 29.869114,424.832489 
	C29.848921,419.567627 32.635868,416.044983 36.278667,413.818939 
	C40.680538,411.128998 45.844486,409.210724 50.924297,408.226471 
	C57.220390,407.006531 57.723076,407.207001 57.687904,400.452545 
	C57.549061,373.793793 57.030754,347.131775 57.312965,320.477966 
	C57.492611,303.511597 57.629581,286.394440 59.901024,269.631531 
	C64.822281,233.313354 82.851952,205.161835 115.872261,187.813354 
	C131.506882,179.599106 148.501160,175.544113 165.902161,173.087158 
	C170.344101,172.459976 174.789597,171.841339 179.209869,171.081512 
	C184.884201,170.106140 187.168686,166.255463 187.674271,160.883728 
	C188.328384,153.933487 188.795166,146.947525 189.861618,140.057266 
	C195.029968,106.664932 211.862183,80.882019 241.002487,63.594795 
	C259.314819,52.731159 279.415710,48.056747 300.663696,48.061783 
	C443.650543,48.095676 586.637390,48.069027 729.624268,48.160110 
	C769.152893,48.185287 799.407471,64.985222 819.840576,99.031502 
	C820.180176,99.597359 820.385559,100.243774 820.840332,101.170853 
M609.520630,254.981186 
	C609.277954,255.102661 609.112000,255.291534 608.092590,255.677567 
	C606.761658,255.713211 605.430786,255.779831 604.099854,255.780106 
	C505.876923,255.800003 407.653992,255.815353 309.431061,255.823059 
	C307.934753,255.823166 306.438477,255.723297 304.254486,255.240433 
	C303.099854,255.140808 301.945251,254.954041 300.790619,254.954147 
	C259.507141,254.958008 218.222305,254.823730 176.941788,255.182434 
	C171.377426,255.230774 165.566360,257.124817 160.337952,259.293488 
	C149.522873,263.779419 144.540085,272.861694 142.976013,284.546112 
	C142.976013,284.546112 143.007019,285.009644 142.871750,285.755096 
	C142.600372,287.498077 142.328995,289.241058 141.551041,291.648254 
	C141.370880,292.949799 141.034531,294.251221 141.033401,295.552917 
	C141.004425,329.129883 140.996185,362.706879 141.054657,396.283752 
	C141.057404,397.861420 141.707901,399.437958 142.049561,401.802063 
	C142.187897,406.736908 144.943146,408.145599 149.574997,408.130859 
	C183.344345,408.023254 217.114731,407.979095 250.883728,408.137268 
	C264.785309,408.202362 277.950897,410.874451 289.992279,418.735504 
	C306.820679,429.721710 314.447083,446.078125 317.662415,464.794983 
	C318.901886,472.010010 317.453888,479.686707 316.489746,486.977600 
	C313.343262,484.881287 309.999420,483.026154 307.087250,480.643463 
	C298.294708,473.449585 289.220825,466.510925 281.110809,458.597382 
	C273.583191,451.252228 266.124390,444.142761 255.931778,440.856812 
	C253.155014,439.961639 250.037277,440.124115 246.311752,439.935150 
	C245.560242,439.778076 244.808731,439.621002 243.795181,438.812347 
	C239.622360,435.895752 233.833649,436.236908 230.302612,439.821991 
	C229.843033,439.816132 229.383453,439.810272 228.293503,439.377380 
	C221.330902,438.511902 203.570953,447.684143 200.350433,453.852448 
	C200.145340,454.245239 200.301575,454.826660 200.121246,455.133636 
	C200.121246,455.133636 200.321396,455.285889 199.592117,455.223633 
	C198.557999,455.980316 197.251495,456.537903 196.530869,457.523712 
	C186.648438,471.043060 181.177200,485.359833 185.696381,502.665894 
	C189.316620,516.529602 196.547653,527.430237 208.102707,535.403992 
	C213.210007,538.928406 219.627228,540.619263 224.546478,544.337524 
	C233.785950,551.321228 242.279999,559.283081 251.285614,566.589722 
	C253.618042,568.482117 253.142517,569.950500 251.088043,571.953308 
	C242.476105,572.267029 233.865616,572.796265 225.251938,572.854675 
	C198.191208,573.038208 171.129303,573.044617 143.215286,573.104675 
	C129.425171,573.555908 115.635056,574.007141 101.844940,574.458435 
	C103.179276,576.451355 104.715508,577.656738 106.459869,578.248779 
	C113.043304,580.483093 119.684029,582.551270 126.323555,584.616638 
	C131.198151,586.132935 136.104431,587.547424 141.470154,589.607056 
	C141.972137,592.867310 142.903137,596.126465 142.910889,599.387939 
	C143.006744,639.705750 142.904114,680.024048 143.039459,720.341614 
	C143.057739,725.783997 142.940292,731.684814 144.890503,736.573608 
	C149.949677,749.255493 160.537369,755.606628 173.763474,755.733765 
	C216.576752,756.145325 259.396240,755.917542 302.213318,755.920776 
	C309.500153,755.921326 311.663971,754.275391 313.291382,747.147034 
	C313.802399,744.908630 313.989777,742.497986 313.791565,740.212402 
	C312.630402,726.824097 315.253723,713.740540 317.231018,700.669800 
	C318.982117,689.094177 321.898834,677.692383 324.374512,666.229675 
	C326.259216,657.503235 327.692230,648.625427 330.333130,640.127869 
	C334.974609,625.193054 339.730988,610.229919 345.638977,595.768799 
	C353.304047,577.006775 361.170044,558.200439 370.762939,540.389832 
	C379.527313,524.117432 390.201843,508.784668 400.979034,493.713196 
	C410.041290,481.040039 420.154175,469.072754 430.343750,457.260315 
	C454.256592,429.538818 481.859314,405.813782 512.260010,385.601593 
	C531.246521,372.978210 551.050903,361.447083 571.182373,350.729797 
	C585.711731,342.994965 601.331787,337.281891 616.570923,330.919861 
	C623.227478,328.140900 630.096680,325.836212 636.963379,323.606018 
	C643.366516,321.526367 649.862122,319.707855 656.376587,318.001862 
	C662.587341,316.375397 668.859558,314.971863 675.133301,313.601135 
	C681.106506,312.296112 687.077515,310.892029 693.119507,310.012085 
	C702.455017,308.652466 711.853455,307.728912 721.218872,306.569153 
	C727.795715,305.754761 734.374329,304.938324 740.929810,303.971558 
	C748.255188,302.891266 752.028137,298.545471 752.058777,291.299500 
	C752.097534,282.136475 752.117554,272.972839 752.051941,263.810120 
	C752.006104,257.400635 750.484436,255.809174 743.350891,254.410721 
	C741.651123,253.949997 739.952087,253.089951 738.251526,253.087021 
	C697.048401,253.015854 655.845093,253.016479 614.642090,253.113922 
	C613.045776,253.117706 611.452148,254.208878 609.520630,254.981186 
M502.500000,133.313690 
	C437.837311,133.313309 373.174469,133.261200 308.512085,133.401291 
	C302.738373,133.413788 296.902252,134.337601 291.212006,135.440948 
	C284.476685,136.746933 279.267700,140.815765 276.278961,146.919632 
	C272.621918,154.388412 271.695435,162.524063 272.424683,170.792358 
	C272.798615,175.032166 275.587830,177.326614 279.478546,178.136536 
	C281.897125,178.640030 284.448669,178.649567 286.939453,178.638275 
	C304.435883,178.559021 321.932037,178.316208 339.428314,178.310883 
	C446.922058,178.278107 554.415771,178.296097 661.909546,178.293137 
	C685.074829,178.292496 708.241821,178.102936 731.404907,178.322754 
	C748.439270,178.484406 754.284668,164.342667 752.483521,151.544449 
	C751.161987,142.154419 745.216187,136.378525 735.876831,134.617767 
	C731.487793,133.790298 726.955505,133.370987 722.487549,133.366455 
	C649.491760,133.292297 576.495850,133.314194 502.500000,133.313690 
z"/>
<path fill="#219EC4" opacity="1.000000" stroke="none" 
	d="
M530.510254,719.661377 
	C526.222046,742.172424 525.985840,764.458862 527.511047,786.784485 
	C528.721130,804.497620 523.435120,818.947754 507.678986,828.418213 
	C486.854065,840.935364 460.859619,832.035095 451.516266,809.630371 
	C447.631104,800.314026 446.757019,790.655518 446.381836,780.826904 
	C445.291962,752.272095 446.577820,723.852905 452.275269,695.791504 
	C457.822632,668.469177 466.605011,642.170349 479.321106,617.330444 
	C503.667267,569.771912 537.200073,529.856140 579.980286,497.787994 
	C609.681335,475.524048 642.434387,459.270447 677.965027,448.652588 
	C706.498230,440.125854 735.741760,435.638977 765.456055,434.327881 
	C774.056641,433.948425 782.859375,433.394196 791.283142,434.728149 
	C810.239868,437.729980 824.426941,447.892944 830.121826,466.822601 
	C833.721497,478.787720 828.951660,489.411469 820.662476,498.263794 
	C810.243835,509.390198 796.717163,513.273560 781.997559,514.219360 
	C766.558899,515.211365 751.003235,515.454468 735.723206,517.613892 
	C707.155396,521.651245 680.310425,531.293884 655.067627,545.367432 
	C612.830139,568.916138 580.495972,602.320190 557.068359,644.372925 
	C544.036133,667.765930 535.388062,692.858765 530.510254,719.661377 
z"/>
<path fill="#3EB9DC" opacity="1.000000" stroke="none" 
	d="
M759.230347,568.392761 
	C768.366821,568.320190 777.104431,567.532043 785.675049,568.397705 
	C799.549683,569.799011 812.489868,574.558289 821.793457,585.453918 
	C836.624023,602.822571 833.221924,622.191589 815.638672,637.462524 
	C805.041992,646.665710 791.890198,648.875000 778.279236,648.816956 
	C756.881165,648.725647 736.641968,653.282166 718.028503,664.045654 
	C696.149109,676.697815 680.383240,694.731262 670.559509,718.088928 
	C662.256653,737.830383 660.793823,758.307739 662.658020,779.337952 
	C663.273010,786.275452 663.662903,793.353638 663.012512,800.259888 
	C661.019104,821.427002 638.543213,837.625061 617.631958,833.424805 
	C599.282959,829.739319 586.039001,815.163818 583.127136,795.986328 
	C579.902649,774.750366 579.316284,753.575012 582.947998,732.317627 
	C591.330444,683.251892 614.624329,642.833130 652.993042,611.154175 
	C674.355042,593.516663 698.789246,581.615723 725.351440,574.341919 
	C736.212585,571.367798 747.605469,570.335388 759.230347,568.392761 
z"/>
<path fill="#80CFE9" opacity="1.000000" stroke="none" 
	d="
M734.333496,718.353882 
	C750.859131,705.001648 768.796753,701.395203 788.314392,709.488647 
	C811.864197,719.254211 825.681213,744.710571 818.347473,770.757507 
	C811.795654,794.027100 789.045532,810.885742 762.953064,808.516724 
	C742.640137,806.672485 723.220703,789.822327 718.495789,770.302917 
	C713.535522,749.811401 719.431458,732.980774 734.333496,718.353882 
z"/>
<path fill="#000101" opacity="1.000000" stroke="none" 
	d="
M304.942169,255.670074 
	C306.438477,255.723297 307.934753,255.823166 309.431061,255.823059 
	C407.653992,255.815353 505.876923,255.800003 604.099854,255.780106 
	C605.430786,255.779831 606.761658,255.713211 608.855835,255.902313 
	C610.757324,256.290741 611.895691,256.597290 613.033997,256.597504 
	C654.561646,256.606354 696.089294,256.595154 737.616882,256.535034 
	C739.045349,256.532959 740.473022,256.000885 742.246826,255.800995 
	C743.066040,255.896088 743.539490,255.906006 744.244629,256.169586 
	C749.211670,258.530457 750.782349,262.137299 750.372803,267.256836 
	C749.962219,272.389465 750.138855,277.585083 750.306824,282.744995 
	C750.855652,299.604614 749.603699,300.076996 733.258240,302.281097 
	C720.907043,303.946564 708.327515,304.295959 696.138733,306.697937 
	C678.759460,310.122711 661.408447,314.117157 644.480225,319.290955 
	C625.809937,324.997253 607.209473,331.346252 589.336365,339.150757 
	C561.929016,351.118469 536.074341,366.103668 511.332397,383.040314 
	C473.284302,409.085510 439.804932,439.953918 411.271362,476.142487 
	C392.322968,500.174408 374.914307,525.275269 361.399689,552.824341 
	C355.343567,565.169556 349.699371,577.765137 344.726837,590.580261 
	C339.468262,604.132629 334.923370,617.986511 330.642365,631.885986 
	C327.044250,643.568237 323.906097,655.423157 321.240692,667.352783 
	C318.674286,678.839294 316.594604,690.467224 314.991821,702.127991 
	C313.026428,716.426575 311.583984,730.806519 310.304901,745.185913 
	C309.693481,752.059448 308.987488,753.328125 301.968506,753.323608 
	C261.811951,753.297791 221.654877,753.291931 181.499451,753.042847 
	C175.235672,753.003967 168.614563,752.824219 162.794662,750.842224 
	C150.196915,746.551941 145.102036,736.239929 145.044937,723.575134 
	C144.831680,676.254578 144.870468,628.932800 144.842758,581.611511 
	C144.839096,575.361511 145.443710,574.809570 151.745285,574.806641 
	C178.405457,574.794189 205.065643,574.789917 231.725815,574.805908 
	C245.395584,574.814148 259.048187,574.467529 272.320068,570.763245 
	C283.623901,567.608337 294.270081,562.995056 302.557037,554.315796 
	C314.473145,541.835510 319.722870,526.460144 320.610504,509.598236 
	C321.205475,498.296631 321.380981,486.909546 320.696625,475.624268 
	C320.159851,466.772614 319.011688,457.711029 316.404694,449.277618 
	C308.133911,422.521973 283.560730,405.684326 256.191956,405.376678 
	C221.204773,404.983398 186.209747,405.187531 151.218948,405.334412 
	C146.446686,405.354431 144.874603,403.868530 144.895370,399.049896 
	C145.053452,362.392822 144.958313,325.734741 144.996918,289.077057 
	C145.005890,280.545166 148.109283,273.195709 153.992157,267.012390 
	C161.578125,259.039032 171.476181,256.918976 181.778473,256.864960 
	C220.601135,256.661499 259.425537,256.799225 298.249146,256.731995 
	C300.480774,256.728149 302.711182,256.039825 304.942169,255.670074 
z"/>
<path fill="#000304" opacity="1.000000" stroke="none" 
	d="
M503.000000,133.314072 
	C576.495850,133.314194 649.491760,133.292297 722.487549,133.366455 
	C726.955505,133.370987 731.487793,133.790298 735.876831,134.617767 
	C745.216187,136.378525 751.161987,142.154419 752.483521,151.544449 
	C754.284668,164.342667 748.439270,178.484406 731.404907,178.322754 
	C708.241821,178.102936 685.074829,178.292496 661.909546,178.293137 
	C554.415771,178.296097 446.922058,178.278107 339.428314,178.310883 
	C321.932037,178.316208 304.435883,178.559021 286.939453,178.638275 
	C284.448669,178.649567 281.897125,178.640030 279.478546,178.136536 
	C275.587830,177.326614 272.798615,175.032166 272.424683,170.792358 
	C271.695435,162.524063 272.621918,154.388412 276.278961,146.919632 
	C279.267700,140.815765 284.476685,136.746933 291.212006,135.440948 
	C296.902252,134.337601 302.738373,133.413788 308.512085,133.401291 
	C373.174469,133.261200 437.837311,133.313309 503.000000,133.314072 
z"/>
<path fill="#000203" opacity="1.000000" stroke="none" 
	d="
M244.057205,439.463928 
	C244.808731,439.621002 245.560242,439.778076 246.947052,440.126984 
	C249.955948,441.091095 252.332336,441.854889 254.702682,442.636963 
	C283.109161,452.009460 297.706818,486.095337 284.701874,512.680969 
	C269.495087,543.767761 232.158844,552.097168 205.037491,530.453430 
	C189.521225,518.070923 182.378174,494.122955 189.465714,475.844757 
	C192.248627,468.667786 196.654572,462.120117 200.321396,455.285889 
	C200.321396,455.285889 200.121246,455.133636 200.537811,455.156677 
	C209.084900,447.885071 218.615326,443.136993 228.923874,439.804413 
	C229.383453,439.810272 229.843033,439.816132 231.075165,439.840729 
	C235.917542,439.727631 239.987366,439.595764 244.057205,439.463928 
z"/>
<path fill="#044D6F" opacity="1.000000" stroke="none" 
	d="
M304.598328,255.455261 
	C302.711182,256.039825 300.480774,256.728149 298.249146,256.731995 
	C259.425537,256.799225 220.601135,256.661499 181.778473,256.864960 
	C171.476181,256.918976 161.578125,259.039032 153.992157,267.012390 
	C148.109283,273.195709 145.005890,280.545166 144.996918,289.077057 
	C144.958313,325.734741 145.053452,362.392822 144.895370,399.049896 
	C144.874603,403.868530 146.446686,405.354431 151.218948,405.334412 
	C186.209747,405.187531 221.204773,404.983398 256.191956,405.376678 
	C283.560730,405.684326 308.133911,422.521973 316.404694,449.277618 
	C319.011688,457.711029 320.159851,466.772614 320.696625,475.624268 
	C321.380981,486.909546 321.205475,498.296631 320.610504,509.598236 
	C319.722870,526.460144 314.473145,541.835510 302.557037,554.315796 
	C294.270081,562.995056 283.623901,567.608337 272.320068,570.763245 
	C259.048187,574.467529 245.395584,574.814148 231.725815,574.805908 
	C205.065643,574.789917 178.405457,574.794189 151.745285,574.806641 
	C145.443710,574.809570 144.839096,575.361511 144.842758,581.611511 
	C144.870468,628.932800 144.831680,676.254578 145.044937,723.575134 
	C145.102036,736.239929 150.196915,746.551941 162.794662,750.842224 
	C168.614563,752.824219 175.235672,753.003967 181.499451,753.042847 
	C221.654877,753.291931 261.811951,753.297791 301.968506,753.323608 
	C308.987488,753.328125 309.693481,752.059448 310.304901,745.185913 
	C311.583984,730.806519 313.026428,716.426575 314.991821,702.127991 
	C316.594604,690.467224 318.674286,678.839294 321.240692,667.352783 
	C323.906097,655.423157 327.044250,643.568237 330.642365,631.885986 
	C334.923370,617.986511 339.468262,604.132629 344.726837,590.580261 
	C349.699371,577.765137 355.343567,565.169556 361.399689,552.824341 
	C374.914307,525.275269 392.322968,500.174408 411.271362,476.142487 
	C439.804932,439.953918 473.284302,409.085510 511.332397,383.040314 
	C536.074341,366.103668 561.929016,351.118469 589.336365,339.150757 
	C607.209473,331.346252 625.809937,324.997253 644.480225,319.290955 
	C661.408447,314.117157 678.759460,310.122711 696.138733,306.697937 
	C708.327515,304.295959 720.907043,303.946564 733.258240,302.281097 
	C749.603699,300.076996 750.855652,299.604614 750.306824,282.744995 
	C750.138855,277.585083 749.962219,272.389465 750.372803,267.256836 
	C750.782349,262.137299 749.211670,258.530457 744.216675,255.912415 
	C743.948059,255.229294 743.939270,255.056961 743.930420,254.884644 
	C750.484436,255.809174 752.006104,257.400635 752.051941,263.810120 
	C752.117554,272.972839 752.097534,282.136475 752.058777,291.299500 
	C752.028137,298.545471 748.255188,302.891266 740.929810,303.971558 
	C734.374329,304.938324 727.795715,305.754761 721.218872,306.569153 
	C711.853455,307.728912 702.455017,308.652466 693.119507,310.012085 
	C687.077515,310.892029 681.106506,312.296112 675.133301,313.601135 
	C668.859558,314.971863 662.587341,316.375397 656.376587,318.001862 
	C649.862122,319.707855 643.366516,321.526367 636.963379,323.606018 
	C630.096680,325.836212 623.227478,328.140900 616.570923,330.919861 
	C601.331787,337.281891 585.711731,342.994965 571.182373,350.729797 
	C551.050903,361.447083 531.246521,372.978210 512.260010,385.601593 
	C481.859314,405.813782 454.256592,429.538818 430.343750,457.260315 
	C420.154175,469.072754 410.041290,481.040039 400.979034,493.713196 
	C390.201843,508.784668 379.527313,524.117432 370.762939,540.389832 
	C361.170044,558.200439 353.304047,577.006775 345.638977,595.768799 
	C339.730988,610.229919 334.974609,625.193054 330.333130,640.127869 
	C327.692230,648.625427 326.259216,657.503235 324.374512,666.229675 
	C321.898834,677.692383 318.982117,689.094177 317.231018,700.669800 
	C315.253723,713.740540 312.630402,726.824097 313.791565,740.212402 
	C313.989777,742.497986 313.802399,744.908630 313.291382,747.147034 
	C311.663971,754.275391 309.500153,755.921326 302.213318,755.920776 
	C259.396240,755.917542 216.576752,756.145325 173.763474,755.733765 
	C160.537369,755.606628 149.949677,749.255493 144.890503,736.573608 
	C142.940292,731.684814 143.057739,725.783997 143.039459,720.341614 
	C142.904114,680.024048 143.006744,639.705750 142.910889,599.387939 
	C142.903137,596.126465 141.972137,592.867310 141.245148,588.844482 
	C141.512207,582.987793 139.309311,577.344727 144.067841,573.119629 
	C171.129303,573.044617 198.191208,573.038208 225.251938,572.854675 
	C233.865616,572.796265 242.476105,572.267029 251.920349,571.935669 
	C262.630554,569.417480 272.824677,567.744629 282.277802,564.132568 
	C288.840118,561.625122 295.076019,557.180298 300.222961,552.299072 
	C308.474213,544.473938 312.787170,534.347046 315.727997,523.139893 
	C318.907196,511.024475 317.857880,499.184387 317.230347,487.153076 
	C317.453888,479.686707 318.901886,472.010010 317.662415,464.794983 
	C314.447083,446.078125 306.820679,429.721710 289.992279,418.735504 
	C277.950897,410.874451 264.785309,408.202362 250.883728,408.137268 
	C217.114731,407.979095 183.344345,408.023254 149.574997,408.130859 
	C144.943146,408.145599 142.187897,406.736908 142.296799,401.072571 
	C142.705673,399.369690 143.007889,398.396423 143.008636,397.422882 
	C143.034592,363.362579 143.043930,329.302246 142.992477,295.242004 
	C142.990341,293.822205 142.382996,292.403351 142.057617,290.984039 
	C142.328995,289.241058 142.600372,287.498077 143.068069,285.285767 
	C143.425232,284.483032 143.321274,284.238281 142.952515,284.082123 
	C144.540085,272.861694 149.522873,263.779419 160.337952,259.293488 
	C165.566360,257.124817 171.377426,255.230774 176.941788,255.182434 
	C218.222305,254.823730 259.507141,254.958008 300.790619,254.954147 
	C301.945251,254.954041 303.099854,255.140808 304.598328,255.455261 
z"/>
<path fill="#016B99" opacity="1.000000" stroke="none" 
	d="
M316.860046,487.065338 
	C317.857880,499.184387 318.907196,511.024475 315.727997,523.139893 
	C312.787170,534.347046 308.474213,544.473938 300.222961,552.299072 
	C295.076019,557.180298 288.840118,561.625122 282.277802,564.132568 
	C272.824677,567.744629 262.630554,569.417480 252.354065,571.905640 
	C253.142517,569.950500 253.618042,568.482117 251.285614,566.589722 
	C242.279999,559.283081 233.785950,551.321228 224.546478,544.337524 
	C219.627228,540.619263 213.210007,538.928406 208.102707,535.403992 
	C196.547653,527.430237 189.316620,516.529602 185.696381,502.665894 
	C181.177200,485.359833 186.648438,471.043060 196.530869,457.523712 
	C197.251495,456.537903 198.557999,455.980316 199.956757,455.254761 
	C196.654572,462.120117 192.248627,468.667786 189.465714,475.844757 
	C182.378174,494.122955 189.521225,518.070923 205.037491,530.453430 
	C232.158844,552.097168 269.495087,543.767761 284.701874,512.680969 
	C297.706818,486.095337 283.109161,452.009460 254.702682,442.636963 
	C252.332336,441.854889 249.955948,441.091095 247.329193,440.060028 
	C250.037277,440.124115 253.155014,439.961639 255.931778,440.856812 
	C266.124390,444.142761 273.583191,451.252228 281.110809,458.597382 
	C289.220825,466.510925 298.294708,473.449585 307.087250,480.643463 
	C309.999420,483.026154 313.343262,484.881287 316.860046,487.065338 
z"/>
<path fill="#026590" opacity="1.000000" stroke="none" 
	d="
M143.641571,573.112183 
	C139.309311,577.344727 141.512207,582.987793 141.008362,588.544678 
	C136.104431,587.547424 131.198151,586.132935 126.323555,584.616638 
	C119.684029,582.551270 113.043304,580.483093 106.459869,578.248779 
	C104.715508,577.656738 103.179276,576.451355 101.844940,574.458435 
	C115.635056,574.007141 129.425171,573.555908 143.641571,573.112183 
z"/>
<path fill="#06638E" opacity="1.000000" stroke="none" 
	d="
M743.640625,254.647675 
	C743.939270,255.056961 743.948059,255.229294 743.984863,255.658783 
	C743.539490,255.906006 743.066040,255.896088 741.901367,255.600494 
	C729.898376,255.198914 718.586792,255.013489 707.274780,254.980286 
	C674.802368,254.884964 642.329773,254.851273 609.857239,254.793365 
	C611.452148,254.208878 613.045776,253.117706 614.642090,253.113922 
	C655.845093,253.016479 697.048401,253.015854 738.251526,253.087021 
	C739.952087,253.089951 741.651123,253.949997 743.640625,254.647675 
z"/>
<path fill="#044D6F" opacity="1.000000" stroke="none" 
	d="
M609.688965,254.887268 
	C642.329773,254.851273 674.802368,254.884964 707.274780,254.980286 
	C718.586792,255.013489 729.898376,255.198914 741.555603,255.515320 
	C740.473022,256.000885 739.045349,256.532959 737.616882,256.535034 
	C696.089294,256.595154 654.561646,256.606354 613.033997,256.597504 
	C611.895691,256.597290 610.757324,256.290741 609.320923,255.837402 
	C609.112000,255.291534 609.277954,255.102661 609.688965,254.887268 
z"/>
<path fill="#076E9E" opacity="1.000000" stroke="none" 
	d="
M141.804321,291.316162 
	C142.382996,292.403351 142.990341,293.822205 142.992477,295.242004 
	C143.043930,329.302246 143.034592,363.362579 143.008636,397.422882 
	C143.007889,398.396423 142.705673,399.369690 142.300385,400.679047 
	C141.707901,399.437958 141.057404,397.861420 141.054657,396.283752 
	C140.996185,362.706879 141.004425,329.129883 141.033401,295.552917 
	C141.034531,294.251221 141.370880,292.949799 141.804321,291.316162 
z"/>
<path fill="#016B99" opacity="1.000000" stroke="none" 
	d="
M228.608688,439.590881 
	C218.615326,443.136993 209.084900,447.885071 200.622040,455.250031 
	C200.301575,454.826660 200.145340,454.245239 200.350433,453.852448 
	C203.570953,447.684143 221.330902,438.511902 228.608688,439.590881 
z"/>
<path fill="#016B99" opacity="1.000000" stroke="none" 
	d="
M243.926193,439.138123 
	C239.987366,439.595764 235.917542,439.727631 231.399551,439.714355 
	C233.833649,436.236908 239.622360,435.895752 243.926193,439.138123 
z"/>
<path fill="#076E9E" opacity="1.000000" stroke="none" 
	d="
M142.964264,284.314117 
	C143.321274,284.238281 143.425232,284.483032 143.135712,284.913025 
	C143.007019,285.009644 142.976013,284.546112 142.964264,284.314117 
z"/>
</svg>